<?xml version="1.0" encoding="utf-8"?>
<!-- Generator: Adobe Illustrator 21.1.0, SVG Export Plug-In . SVG Version: 6.00 Build 0)  -->
<svg version="1.1" id="Layer_0_xA0_Image_1_" xmlns="http://www.w3.org/2000/svg" xmlns:xlink="http://www.w3.org/1999/xlink"
	 x="0px" y="0px" viewBox="0 0 548.1 465.6" style="enable-background:new 0 0 548.1 465.6;" xml:space="preserve">
<style type="text/css">
	.st0{fill:#FFFFFF;}
</style>
<g>
	<path class="st0" d="M-18.3,505c0-182.9,0-365.8,0-548.6c200.2,0,400.3,0,600.5,0c0,182.9,0,365.8,0,548.6
		C382,505,181.9,505-18.3,505z M237.4,0c0,0.2,0,0.3-0.1,0.5c10.8,4.9,18.3,13.2,24,23.3c6.2,11,12.7,21.8,19,32.8
		c6,10.4,11.8,20.8,17.8,31.2c6.2,10.7,12.4,21.5,18.7,32.1c4.6,7.7,11.1,13.4,19.5,16.7c6.3,2.5,12.8,3.2,19.5,2.7
		c7.5-0.5,14.4-2.8,20.7-7c6.4-4.3,11.1-10.1,15-16.6c4.1-6.9,8.1-13.8,12.3-20.6c0.9-1.5,0.9-2.6,0.1-4.1
		c-7.7-14.2-16.4-27.8-24-42c-7-13.1-14.9-25.7-22.5-38.5c-3.1-5.2-7.7-8.6-13.6-9.8c-2.4-0.5-4.9-0.7-7.4-0.7
		c-32.2,0-64.5,0-96.7,0C238.9,0,238.2,0,237.4,0z M291.3,296.9c-0.4,0.6-0.7,1.2-1.1,1.8c-4.5,8-9,16-13.5,24
		c-11.2,19.9-22.4,39.9-33.7,59.7c-5.1,9-5.5,17.6,0.1,26.7c7.7,12.5,14.9,25.4,22.3,38.1c0.4,0.7,0.8,1.5,1.3,2.4
		c-8.9,5.1-17.5,10.1-26.2,15.2c0.6,0.4,1.2,0.5,1.7,0.5c28.1,0.1,56.3,0.2,84.4,0.4c1.7,0,2.6-0.6,3.3-2c2.6-5,5.3-9.8,8-14.8
		c5.8-10.7,11.6-21.3,17.4-32c5-9.1,10-18.2,14.9-27.3c0.2-0.4,0.4-0.9,0.6-1.4c-0.1-0.1-0.2-0.2-0.3-0.2
		c-8.7,5.2-17.3,10.4-26.1,15.7c-0.8-1.3-1.5-2.4-2.1-3.5c-3.3-5.6-6.6-11.1-9.9-16.7c-11.1-18.6-22.1-37.2-33.2-55.9
		c-3.2-5.3-5.5-11-6.8-17.1C291.6,306,291.3,301.5,291.3,296.9z M443.8,44.5c-0.4,0.8-0.8,1.5-1.2,2.2c-4.3,7.6-8.7,15.1-13,22.7
		c-10,17.3-19.9,34.7-29.9,52c-5.2,9-12.2,16.2-21.6,20.8c-0.4,0.2-0.6,0.5-1.3,1.1c1.2,0,1.9,0,2.7,0c32,0,64,0,96,0
		c1.9,0,3.8-0.1,5.7-0.4c7.2-1.1,12.5-4.8,16.2-11.1c7.7-13.3,15.5-26.5,23.3-39.7c0.4-0.7,0.9-1.5,1.4-2.3
		c8.8,5.2,17.5,10.3,26.1,15.4c0-1-0.4-1.7-0.7-2.3c-13.6-24.4-27.2-48.7-40.7-73.1c-0.8-1.5-1.7-2-3.4-1.9
		c-11.6,0.2-23.2,0.4-34.8,0.5c-14.1,0.2-28.1,0.3-42.2,0.5c-2.9,0-5.8,0-8.8,0c-0.1,0.2-0.1,0.4-0.2,0.6
		C426.2,34.4,434.9,39.4,443.8,44.5z M45.1,46.2c0-2.8,0-5.2,0-7.7c0-2.6,0-5.1,0-7.7c0-2.5,0.1-5,0-7.4c0-2.5,0.2-5-0.5-7.5
		C29.8,41.1,14.9,66.3,0,91.6c0.5,0.8,0.8,1.5,1.2,2.2c2.9,4.7,5.7,9.4,8.6,14.1c6.3,10.4,12.6,20.8,18.9,31.2
		c5.4,8.9,10.7,17.8,16.1,26.7c0.3,0.4,0.6,0.8,1.3,1.7c-0.2-10.7-0.3-20.8-0.5-31.2c1.2,0,2,0,2.9,0c10.7-0.1,21.4-0.2,32.1-0.2
		c18-0.1,36-0.3,54-0.4c10.4,0,20.1,2.4,28.8,8.3c0.3,0.2,0.6,0.3,1.4,0.6c-0.6-1.1-1-1.8-1.4-2.5c-12.2-20.9-24.4-41.8-36.7-62.7
		c-4.5-7.7-8.9-15.4-13.6-22.9c-4.4-6.9-10.8-10.4-19.1-10.4c-14.6,0-29.1,0-43.7,0C48.7,46.2,47.1,46.2,45.1,46.2z M256.3,254.5
		c-0.9-0.1-1.6-0.1-2.2-0.1c-30.9,0.2-61.9,0.3-92.8,0.4c-1.5,0-2.3,0.5-3,1.8c-3,5.6-6.2,11.2-9.2,16.8c-2.3,4.4-4.7,8.7-6.6,13.3
		c-2.6,6-3.6,12.4-3.1,19c0.6,8,3.4,15.2,7.9,21.8c6.1,8.9,14.3,14.7,25,16.9c5.1,1.1,10.2,0.9,15.3,0.9c22.1-0.1,44.1-0.2,66.2-0.3
		c0.8,0,1.7-0.1,2.5-0.1C256.3,314.8,256.3,284.8,256.3,254.5z M129.6,305c0.2,0,0.3-0.1,0.5-0.1c0-0.5,0-1.1,0-1.6
		c-0.6-10.2,2-19.6,7-28.5c6.5-11.6,13.1-23.1,19.6-34.6c6-10.6,12-21.1,17.9-31.7c4.2-7.6,6.1-15.8,4.9-24.5
		c-0.8-6.5-3.2-12.5-6.8-18c-7.7-12-18.7-18.8-32.8-19.8c-10.7-0.8-21.4-0.4-32.1-0.6c-0.2,0-0.3,0.1-0.6,0.1
		c-2.4,4-4.9,8.1-7.3,12.3c-7.2,12.8-14.4,25.7-21.6,38.5c-1.9,3.4-2.8,7.1-2.6,11.1c0.2,4.8,2,9,4.4,13
		c13.6,23.2,27.1,46.4,40.7,69.6C123.7,295,126.6,300,129.6,305z M447.7,245.8c-0.1-0.1-0.2-0.2-0.3-0.2c-0.3,0.2-0.7,0.4-1,0.6
		c-8.5,5.9-18,8.5-28.2,8.7c-13.3,0.3-26.7,0.4-40.1,0.5c-12.2,0.2-24.5,0.3-36.7,0.5c-7,0.1-13.6,1.9-19.6,5.5
		c-7.8,4.6-13.2,11.3-16.9,19.4c-2.2,4.8-3.6,9.7-3.9,15c-0.6,9.2,1.9,17.7,6.3,25.7c4.2,7.6,8.7,15.1,12.9,22.7
		c0.6,1.1,1.3,1.6,2.6,1.6c4.3-0.1,8.6,0.1,12.9,0c14.5-0.2,28.9-0.5,43.4-0.7c7.5-0.1,13.4-3.4,17.7-9.4c1-1.4,1.9-2.8,2.7-4.2
		c15.7-27.9,31.5-55.9,47.2-83.8C447.1,247,447.4,246.4,447.7,245.8z M217.5,134.9c0.4-0.6,0.6-0.9,0.8-1.3c15.6-27,31.2-54,46.9-81
		c0.8-1.3,0.7-2.2-0.1-3.5c-4.5-7.5-8.9-15-13.4-22.4c-1.5-2.4-3.1-4.7-4.8-6.9C234.1,3.9,215.4,1.1,200,5.5
		c-10.7,3-18.3,10.1-23.8,19.6c-12,20.7-24,41.4-35.9,62c-0.4,0.7-0.7,1.4-1.1,2.2C165.3,104.5,191.3,119.7,217.5,134.9z M361,197.7
		c9.6,16.2,18.9,32,28.3,47.9c0.6,0,1.1,0,1.6,0c6.1-0.2,12.1-0.2,18.2-0.5c5.8-0.2,11.6-0.2,17.4-1.2c23.5-3.9,37.1-26.4,35.6-45.1
		c-0.4-5.4-1.7-10.7-4.3-15.3c-5.7-10.2-11.9-20.3-17.8-30.4c-0.3-0.5-0.6-0.9-1-1.4C413.1,167.1,387.2,182.4,361,197.7z"/>
	<path d="M237.4,0c0.8,0,1.5,0,2.3,0c32.2,0,64.5,0,96.7,0c2.5,0,5,0.2,7.4,0.7c5.9,1.3,10.5,4.6,13.6,9.8
		c7.6,12.8,15.5,25.4,22.5,38.5c7.6,14.2,16.3,27.8,24,42c0.8,1.5,0.8,2.6-0.1,4.1c-4.2,6.8-8.2,13.7-12.3,20.6
		c-3.9,6.5-8.6,12.3-15,16.6c-6.2,4.2-13.1,6.5-20.7,7c-6.7,0.5-13.3-0.2-19.5-2.7c-8.4-3.3-14.9-9-19.5-16.7
		c-6.3-10.7-12.5-21.4-18.7-32.1c-6-10.4-11.8-20.8-17.8-31.2c-6.3-10.9-12.8-21.8-19-32.8c-5.7-10.1-13.2-18.4-24-23.3
		C237.3,0.3,237.4,0.2,237.4,0z M345.5,51.7c2.7,0.5,3.1,0.1,2.8-2.4c-0.1-1.4-0.3-2.9-0.4-4.3c-0.3-2.8-0.6-5.5-0.9-8.4
		c-0.9,0-1.7,0-2.5,0c-1.3,2.3-1.3,2.3-3.9,1.5c-1-0.3-2-0.6-3-0.9c-2.3-0.6-4.5-0.9-6.8-0.3c-4.9,1.1-8.1,4-9.3,8.9
		c-1.2,4.7,0.3,8.7,4,11.8c1.6,1.3,3.4,2.4,5.1,3.5c2.8,1.9,5.7,3.6,8.3,5.6c2.8,2.1,3.5,5.5,2.2,8.4c-1.1,2.6-4.1,4-7.5,3.6
		c-3.6-0.4-6.3-2.2-8.3-5.1c-1.1-1.6-1.9-3.3-2.7-5.1c-0.5-1.1-1.2-1.3-2.1-1.1c-1,0.2-1.3,1-1.2,2c0.5,3.4,1,6.8,1.4,10.2
		c0.1,1,0.3,2,0.5,3c0.6,0.1,1,0.1,1.4,0.1c0.5,0,0.9-0.1,1.3-0.1c0.9-2.2,0.9-2.2,3-1.6c1,0.3,2,0.7,3,1c4.2,1.2,8.4,1.2,12.4-0.6
		c8.8-4,9.9-15,3.1-20.5c-1.2-1-2.5-2-3.8-2.9c-2.5-1.6-5-3.1-7.5-4.7c-1.3-0.9-2.6-1.9-3.8-2.9c-1.2-1-1.8-2.4-1.9-4
		c-0.2-3.3,2.8-5.8,6.5-5.3c3.9,0.5,6.9,2.5,8.7,6.1C344.4,48.6,344.9,50.2,345.5,51.7z"/>
	<path d="M291.3,296.9c0,4.6,0.3,9.2,1.2,13.7c1.3,6.1,3.6,11.7,6.8,17.1c11.1,18.6,22.1,37.2,33.2,55.9c3.3,5.6,6.6,11.1,9.9,16.7
		c0.6,1.1,1.3,2.2,2.1,3.5c8.8-5.3,17.5-10.5,26.1-15.7c0.1,0.1,0.2,0.2,0.3,0.2c-0.2,0.5-0.4,0.9-0.6,1.4c-5,9.1-10,18.2-14.9,27.3
		c-5.8,10.7-11.6,21.3-17.4,32c-2.7,4.9-5.4,9.8-8,14.8c-0.8,1.4-1.6,2-3.3,2c-28.1-0.2-56.3-0.3-84.4-0.4c-0.5,0-1-0.1-1.7-0.5
		c8.7-5,17.3-10,26.2-15.2c-0.5-0.9-0.9-1.6-1.3-2.4c-7.4-12.7-14.6-25.6-22.3-38.1c-5.6-9.1-5.2-17.7-0.1-26.7
		c11.3-19.9,22.5-39.8,33.7-59.7c4.5-8,9-16,13.5-24C290.5,298.1,290.9,297.5,291.3,296.9z"/>
	<path d="M443.8,44.5c-8.9-5.1-17.7-10-26.4-15c0.1-0.2,0.1-0.4,0.2-0.6c2.9,0,5.8,0,8.8,0c14.1-0.2,28.1-0.3,42.2-0.5
		c11.6-0.2,23.2-0.3,34.8-0.5c1.6,0,2.6,0.5,3.4,1.9c13.5,24.4,27.1,48.8,40.7,73.1c0.4,0.7,0.7,1.4,0.7,2.3
		c-8.6-5.1-17.3-10.2-26.1-15.4c-0.5,0.8-0.9,1.6-1.4,2.3c-7.8,13.2-15.6,26.4-23.3,39.7c-3.7,6.3-9,10-16.2,11.1
		c-1.9,0.3-3.8,0.4-5.7,0.4c-32,0-64,0-96,0c-0.7,0-1.4,0-2.7,0c0.7-0.6,1-0.9,1.3-1.1c9.4-4.6,16.4-11.9,21.6-20.8
		c10-17.3,19.9-34.6,29.9-52c4.3-7.6,8.7-15.1,13-22.7C443,46,443.4,45.3,443.8,44.5z M478,67.3c-1.3,2.2-1.3,2.2-3.6,1.5
		c-1-0.3-2-0.6-3-0.9c-2.7-0.8-5.4-0.9-8-0.2c-4.3,1.2-7.1,3.9-8.3,8.2c-1.3,4.4-0.3,8.3,3,11.4c1.2,1.1,2.6,2.1,4,3.1
		c2.9,1.9,5.8,3.7,8.7,5.6c1.1,0.8,2.2,1.6,3,2.7c3.3,4.1,1,9.8-4.2,10.6c-3.5,0.5-6.6-0.6-8.9-3.1c-1.5-1.7-2.6-3.8-3.9-5.7
		c-0.5-0.7-0.7-1.6-1.1-2.3c-2.6-0.1-2.9,0.1-2.6,2.5c0.5,4,1.1,7.9,1.6,11.9c0,0.3,0.3,0.5,0.4,0.8c0.9,0,1.7,0,2.4,0
		c0.3-0.7,0.7-1.3,1.1-2.2c1.7,0.5,3.2,1,4.8,1.4c4.3,1.3,8.5,1.3,12.6-0.6c8.9-4.2,9.6-15,3.2-20.2c-1.7-1.4-3.4-2.7-5.2-3.9
		c-2.3-1.5-4.7-2.8-6.9-4.4c-1.4-1-2.9-2.1-4-3.4c-2.6-3.1-1.1-7.3,2.8-8.2c1.1-0.3,2.4-0.2,3.5,0c3.7,0.8,6.5,3,8,6.6
		c0.5,1.3,1,2.7,1.5,4c2.7,0.2,3,0,2.8-2.4c-0.2-2.1-0.4-4.1-0.7-6.2c-0.2-2.1-0.5-4.3-0.7-6.4c-0.5-0.1-0.8-0.1-1.1-0.1
		C478.9,67.3,478.4,67.3,478,67.3z"/>
	<path d="M45.1,46.2c2,0,3.6,0,5.1,0c14.6,0,29.1,0.1,43.7,0c8.3,0,14.7,3.5,19.1,10.4c4.7,7.5,9.1,15.2,13.6,22.9
		c12.2,20.9,24.5,41.8,36.7,62.7c0.4,0.7,0.8,1.4,1.4,2.5c-0.7-0.3-1.1-0.4-1.4-0.6c-8.7-5.8-18.4-8.3-28.8-8.3
		c-18,0.1-36,0.2-54,0.4c-10.7,0.1-21.4,0.2-32.1,0.2c-0.9,0-1.7,0-2.9,0c0.2,10.4,0.3,20.5,0.5,31.2c-0.7-0.9-1-1.3-1.3-1.7
		c-5.4-8.9-10.7-17.8-16.1-26.7c-6.3-10.4-12.6-20.8-18.9-31.2c-2.9-4.7-5.7-9.4-8.6-14.1c-0.4-0.7-0.8-1.4-1.2-2.2
		c14.9-25.3,29.8-50.5,44.6-75.8c0.8,2.5,0.5,5,0.5,7.5c0,2.5,0,5,0,7.4c0,2.6,0,5.1,0,7.7C45.1,40.9,45.1,43.4,45.1,46.2z
		 M52.7,109.8c-0.2,2.3,0,2.7,1.9,2.7c5.2,0,10.4,0,15.6,0c1.9,0,2.1-0.4,1.8-2.7c-0.7-0.1-1.5-0.2-2.3-0.3c-2.8-0.4-3.4-1-3.5-3.8
		c-0.1-1.5,0-3,0-4.6c0-2.3,0-4.6,0-7.2c1.7,0,3.1,0,4.5,0c3.9,0,7.6-0.7,11.1-2.5c4.3-2.2,6.2-5.9,6.3-10.5c0.1-4.6-2.1-7.9-6-10.2
		c-2.8-1.6-5.8-2.3-9-2.4c-6.2-0.1-12.3-0.1-18.5-0.1c-1.9,0-2.3,0.7-1.7,2.7c0.9,0.2,1.7,0.3,2.6,0.5c1.6,0.2,2.3,1.2,2.5,2.8
		c0.1,0.6,0.1,1.1,0.1,1.7c0,9.6,0,19.2,0,28.8c0,4-0.4,4.4-4.5,4.9C53.3,109.6,53.1,109.7,52.7,109.8z"/>
	<path d="M256.3,254.5c0,30.3,0,60.2,0,90.5c-0.8,0-1.7,0.1-2.5,0.1c-22.1,0.1-44.1,0.2-66.2,0.3c-5.1,0-10.2,0.2-15.3-0.9
		c-10.6-2.3-18.9-8-25-16.9c-4.5-6.6-7.3-13.8-7.9-21.8c-0.5-6.6,0.5-13,3.1-19c1.9-4.5,4.3-8.9,6.6-13.3c3-5.6,6.2-11.2,9.2-16.8
		c0.7-1.3,1.5-1.8,3-1.8c30.9-0.1,61.9-0.3,92.8-0.4C254.7,254.4,255.3,254.5,256.3,254.5z"/>
	<path d="M129.6,305c-2.9-5-5.8-9.9-8.7-14.9c-13.6-23.2-27.1-46.4-40.7-69.6c-2.4-4-4.2-8.2-4.4-13c-0.1-4,0.7-7.6,2.6-11.1
		c7.2-12.8,14.3-25.7,21.6-38.5c2.4-4.2,4.9-8.2,7.3-12.3c0.3-0.1,0.4-0.2,0.6-0.1c10.7,0.2,21.5-0.2,32.1,0.6
		c14.1,1,25.1,7.7,32.8,19.8c3.5,5.5,5.9,11.5,6.8,18c1.1,8.7-0.7,16.9-4.9,24.5c-5.9,10.6-12,21.2-17.9,31.7
		c-6.5,11.5-13.1,23.1-19.6,34.6c-5,8.8-7.6,18.3-7,28.5c0,0.5,0,1.1,0,1.6C129.9,304.9,129.7,304.9,129.6,305z"/>
	<path d="M447.7,245.8c-0.3,0.6-0.6,1.2-1,1.9c-15.7,27.9-31.4,55.9-47.2,83.8c-0.8,1.5-1.7,2.9-2.7,4.2c-4.4,6-10.2,9.2-17.7,9.4
		c-14.5,0.2-28.9,0.5-43.4,0.7c-4.3,0.1-8.6-0.1-12.9,0c-1.3,0-2-0.5-2.6-1.6c-4.3-7.6-8.7-15.1-12.9-22.7c-4.4-8-6.9-16.5-6.3-25.7
		c0.3-5.3,1.7-10.2,3.9-15c3.7-8.1,9.1-14.8,16.9-19.4c6-3.6,12.6-5.4,19.6-5.5c12.2-0.2,24.5-0.3,36.7-0.5
		c13.4-0.2,26.7-0.3,40.1-0.5c10.2-0.2,19.7-2.8,28.2-8.7c0.3-0.2,0.7-0.4,1-0.6C447.5,245.6,447.6,245.7,447.7,245.8z"/>
	<path d="M217.5,134.9c-26.2-15.2-52.2-30.4-78.4-45.6c0.4-0.8,0.8-1.5,1.1-2.2c12-20.7,24-41.4,35.9-62
		c5.5-9.5,13.1-16.6,23.8-19.6c15.4-4.4,34-1.6,46.8,14.4c1.7,2.2,3.4,4.5,4.8,6.9c4.5,7.4,8.9,15,13.4,22.4
		c0.7,1.2,0.8,2.2,0.1,3.5c-15.6,27-31.2,54-46.9,81C218.2,134,217.9,134.3,217.5,134.9z M217.7,79.2c-0.4-0.1-0.9-0.2-1.4-0.3
		c-4.4-0.6-4.7-0.8-4.7-5.2c0-9.3,0-18.5,0-27.8c0-0.7,0-1.4,0.1-2.2c0.3-2.1,0.7-2.6,2.8-3c1.1-0.2,2.2-0.4,3.2-0.5
		c0.1-2.4-0.1-2.7-2-2.7c-5.4,0-10.9,0-16.3,0c-2.1,0-2.3,0.4-2,2.7c0.3,0,0.6,0.1,0.9,0.2c4.8,0.6,5.1,0.9,5.1,5.6
		c0,9.1,0,18.2,0,27.3c0,0.6,0,1.1,0,1.7c-0.2,2.8-0.7,3.3-3.4,3.7c-0.9,0.1-1.7,0.2-2.5,0.3c-0.3,2.4-0.1,2.8,1.8,2.8
		c5.5,0,11,0,16.5,0C217.7,81.8,217.9,81.5,217.7,79.2z"/>
	<path d="M361,197.7c26.2-15.4,52.1-30.6,78.1-45.9c0.4,0.5,0.8,0.9,1,1.4c6,10.1,12.1,20.1,17.8,30.4c2.6,4.7,3.8,9.9,4.3,15.3
		c1.5,18.7-12.2,41.1-35.6,45.1c-5.8,1-11.6,0.9-17.4,1.2c-6.1,0.3-12.1,0.3-18.2,0.5c-0.5,0-1,0-1.6,0
		C379.9,229.8,370.5,213.9,361,197.7z"/>
	<path class="st0" d="M345.5,51.7c-0.6-1.6-1.1-3.2-1.9-4.6c-1.8-3.6-4.8-5.5-8.7-6.1c-3.7-0.5-6.7,2-6.5,5.3c0.1,1.6,0.7,3,1.9,4
		c1.2,1,2.5,2,3.8,2.9c2.5,1.6,5,3.1,7.5,4.7c1.3,0.9,2.6,1.9,3.8,2.9c6.8,5.5,5.8,16.5-3.1,20.5c-4,1.8-8.2,1.8-12.4,0.6
		c-1-0.3-2-0.6-3-1c-2-0.6-2-0.6-3,1.6c-0.4,0-0.8,0.1-1.3,0.1c-0.4,0-0.8-0.1-1.4-0.1c-0.2-1-0.4-2-0.5-3
		c-0.5-3.4-0.9-6.8-1.4-10.2c-0.2-1,0.1-1.8,1.2-2c0.9-0.2,1.6,0,2.1,1.1c0.8,1.7,1.6,3.5,2.7,5.1c2,2.9,4.7,4.7,8.3,5.1
		c3.3,0.4,6.3-1.1,7.5-3.6c1.3-2.9,0.5-6.3-2.2-8.4c-2.7-2-5.6-3.8-8.3-5.6c-1.7-1.2-3.5-2.2-5.1-3.5c-3.7-3.1-5.2-7-4-11.8
		c1.2-4.9,4.4-7.7,9.3-8.9c2.4-0.6,4.6-0.3,6.8,0.3c1,0.3,2,0.6,3,0.9c2.6,0.8,2.6,0.8,3.9-1.5c0.8,0,1.5,0,2.5,0
		c0.3,2.9,0.6,5.6,0.9,8.4c0.2,1.4,0.3,2.9,0.4,4.3C348.6,51.9,348.1,52.2,345.5,51.7z"/>
	<path class="st0" d="M478,67.3c0.4,0,0.9-0.1,1.4-0.1c0.3,0,0.6,0.1,1.1,0.1c0.2,2.2,0.5,4.3,0.7,6.4c0.2,2.1,0.5,4.1,0.7,6.2
		c0.2,2.4-0.1,2.7-2.8,2.4c-0.5-1.3-0.9-2.7-1.5-4c-1.5-3.6-4.2-5.8-8-6.6c-1.1-0.3-2.4-0.3-3.5,0c-3.9,0.9-5.4,5.1-2.8,8.2
		c1.1,1.3,2.6,2.4,4,3.4c2.2,1.5,4.6,2.8,6.9,4.4c1.8,1.2,3.5,2.5,5.2,3.9c6.4,5.2,5.7,16.1-3.2,20.2c-4.1,1.9-8.4,1.9-12.6,0.6
		c-1.6-0.5-3.2-0.9-4.8-1.4c-0.4,0.9-0.7,1.5-1.1,2.2c-0.8,0-1.5,0-2.4,0c-0.1-0.3-0.3-0.5-0.4-0.8c-0.6-4-1.2-7.9-1.6-11.9
		c-0.3-2.4,0-2.6,2.6-2.5c0.3,0.7,0.6,1.5,1.1,2.3c1.2,1.9,2.3,4,3.9,5.7c2.3,2.6,5.5,3.6,8.9,3.1c5.2-0.7,7.5-6.4,4.2-10.6
		c-0.8-1-1.9-1.9-3-2.7c-2.8-1.9-5.8-3.7-8.7-5.6c-1.4-0.9-2.8-1.9-4-3.1c-3.3-3.2-4.3-7-3-11.4c1.2-4.3,4.1-7,8.3-8.2
		c2.7-0.8,5.4-0.6,8,0.2c1,0.3,2,0.6,3,0.9C476.7,69.6,476.7,69.5,478,67.3z"/>
	<path class="st0" d="M52.7,109.8c0.4-0.1,0.6-0.2,0.8-0.2c4.1-0.6,4.5-0.9,4.5-4.9c0-9.6,0-19.2,0-28.8c0-0.6,0-1.1-0.1-1.7
		c-0.2-1.5-0.9-2.5-2.5-2.8c-0.9-0.1-1.7-0.3-2.6-0.5c-0.6-2-0.2-2.7,1.7-2.7c6.2,0,12.3-0.1,18.5,0.1c3.1,0.1,6.2,0.8,9,2.4
		c3.9,2.2,6.1,5.6,6,10.2c-0.1,4.7-1.9,8.3-6.3,10.5c-3.5,1.8-7.2,2.4-11.1,2.5c-1.4,0-2.8,0-4.5,0c0,2.6,0,4.9,0,7.2
		c0,1.5,0,3,0,4.6c0.1,2.8,0.7,3.4,3.5,3.8c0.8,0.1,1.6,0.2,2.3,0.3c0.3,2.3,0.1,2.7-1.8,2.7c-5.2,0-10.4,0-15.6,0
		C52.7,112.4,52.5,112,52.7,109.8z M66.3,89.6c2.8,0.5,5.4,0.3,7.8-0.5c5.4-1.8,7.2-10.2,3-14.1c-3.1-2.8-6.8-2.9-10.8-2.5
		C66.3,78.3,66.3,83.8,66.3,89.6z"/>
	<path class="st0" d="M217.7,79.2c0.2,2.3,0,2.6-1.9,2.7c-5.5,0-11,0-16.5,0c-1.9,0-2.1-0.4-1.8-2.8c0.8-0.1,1.7-0.2,2.5-0.3
		c2.7-0.4,3.2-0.9,3.4-3.7c0-0.6,0-1.1,0-1.7c0-9.1,0-18.2,0-27.3c0-4.7-0.3-5-5.1-5.6c-0.3,0-0.6-0.1-0.9-0.2
		c-0.3-2.4-0.1-2.7,2-2.7c5.4,0,10.9,0,16.3,0c1.9,0,2.1,0.3,2,2.7c-1.1,0.2-2.1,0.3-3.2,0.5c-2.1,0.4-2.5,0.9-2.8,3
		c-0.1,0.7-0.1,1.4-0.1,2.2c0,9.3,0,18.5,0,27.8c0,4.4,0.2,4.6,4.7,5.2C216.8,79,217.2,79.1,217.7,79.2z"/>
	<path d="M66.3,89.6c0-5.7,0-11.3,0-17.1c4-0.5,7.7-0.3,10.8,2.5c4.2,3.8,2.4,12.3-3,14.1C71.7,89.8,69.2,90,66.3,89.6z"/>
</g>
</svg>
